<svg width="598" height="596" viewBox="0 0 598 596" fill="none" xmlns="http://www.w3.org/2000/svg">
<g clip-path="url(#clip0_105_3)">
<path opacity="0.18" d="M55.42 578.29C30.48 590.36 106.42 597.4 134.03 595.63L255.25 587.89C260.49 587.56 274.4 587.41 270.32 584.09C249.44 567.09 88.33 562.35 55.42 578.29ZM554.21 461.98C546.46 473.22 537.86 481.38 528.56 485.52C455.24 518.13 433.85 434.57 243.7 501.79C228.939 507.061 213.891 511.495 198.63 515.07C90.73 539.94 42.5 496.93 27.37 461.98C21.22 447.8 20.52 434.98 23.5 428.49C34.76 404.09 24.5 364.31 3.07002 250.31C-18.36 136.31 76.39 98.5 150.07 80.59C197.29 69.12 220.29 53.36 230.72 43.52C242.843 31.94 257.161 22.9027 272.83 16.94C378.83 -22.61 430.31 12.94 493.49 63.36C507.44 74.45 521.97 86.31 537.72 98.22C620.43 160.63 607.62 384.52 554.21 461.98Z" fill="#AAAAAA"/>
<path opacity="0.18" d="M554.21 461.98C546.46 473.22 537.86 481.38 528.56 485.52C455.24 518.13 433.85 434.57 243.7 501.79C103.81 551.24 44.4701 501.45 27.3701 461.98H554.21Z" fill="#8C8C8C"/>
<path d="M537.73 146.08V419.45C537.73 422.088 537.21 424.7 536.201 427.137C535.191 429.573 533.711 431.788 531.845 433.652C529.979 435.517 527.765 436.996 525.327 438.004C522.89 439.013 520.278 439.531 517.64 439.53H102.64C99.9984 439.537 97.3814 439.022 94.9388 438.016C92.4963 437.01 90.2761 435.532 88.4054 433.667C86.5347 431.802 85.0502 429.586 84.0369 427.147C83.0236 424.707 82.5013 422.092 82.5 419.45V146.08C82.5053 140.755 84.6243 135.65 88.3913 131.887C92.1583 128.124 97.2653 126.01 102.59 126.01H517.64C520.277 126.009 522.888 126.527 525.325 127.535C527.762 128.543 529.976 130.021 531.842 131.884C533.707 133.748 535.187 135.961 536.198 138.396C537.208 140.832 537.729 143.443 537.73 146.08Z" fill="white"/>
<path d="M158.77 514.03C157.94 519.38 126.91 575.81 126.91 575.81C135.98 577.45 139.28 584.05 139.28 584.05H111.18L133.41 514.05C133.41 514.05 134.36 480.59 128.58 462.46C124.74 450.37 124.97 436.36 125.58 428.36C125.87 424.36 126.24 421.88 126.24 421.88L167.71 440.62C167.71 440.62 159.6 508.67 158.77 514.03Z" fill="#25233A"/>
<path d="M209.34 584.05H180.87V583.9L175.73 510.32C175.73 510.32 151.67 481.04 137.67 459.61C123.67 438.18 126.07 424.09 126.07 424.09H164.37C166.31 424.87 168.93 432.47 170.62 436.28C177.75 452.44 193.93 485.87 195.35 492.23C199.9 512.48 193.68 573.34 193.68 573.34C202.34 574.16 209.34 584.05 209.34 584.05Z" fill="#3F3D56"/>
<path d="M138.04 256.85H441.3V282.76H138.04V256.85Z" stroke="#C8C8C8" stroke-width="0.82" stroke-miterlimit="10"/>
<path d="M441.3 256.53H481.4V283.12H441.3V256.53Z" fill="#68E1FD"/>
<path opacity="0.31" d="M441.3 256.53H481.4V283.12H441.3V256.53Z" fill="#A4A4A4"/>
<path d="M464.496 273.218C467.151 270.562 467.151 266.256 464.496 263.601C461.84 260.945 457.535 260.945 454.879 263.601C452.224 266.257 452.224 270.562 454.879 273.218C457.535 275.873 461.84 275.873 464.496 273.218Z" stroke="white" stroke-width="0.73" stroke-miterlimit="10"/>
<path d="M464.062 273.433L465.352 271.713L472.438 277.032L471.148 278.752L464.062 273.433Z" fill="white"/>
<path d="M537.73 146.08V152.7H82.5V146.08C82.5053 140.755 84.6243 135.65 88.3913 131.887C92.1583 128.124 97.2653 126.01 102.59 126.01H517.64C520.277 126.009 522.888 126.527 525.325 127.535C527.762 128.543 529.976 130.021 531.842 131.884C533.707 133.748 535.187 135.961 536.198 138.396C537.208 140.832 537.729 143.443 537.73 146.08Z" fill="#404040"/>
<path d="M105.42 140.78C105.42 141.623 105.17 142.446 104.702 143.147C104.234 143.847 103.569 144.393 102.79 144.716C102.012 145.038 101.155 145.123 100.329 144.958C99.5025 144.794 98.7434 144.388 98.1476 143.792C97.5519 143.196 97.1461 142.437 96.9818 141.611C96.8174 140.785 96.9017 139.928 97.2242 139.15C97.5466 138.371 98.0926 137.706 98.7932 137.238C99.4937 136.77 100.317 136.52 101.16 136.52C101.72 136.519 102.274 136.628 102.792 136.842C103.309 137.055 103.779 137.369 104.175 137.765C104.571 138.161 104.885 138.631 105.098 139.148C105.312 139.666 105.421 140.22 105.42 140.78Z" fill="url(#paint0_linear_105_3)"/>
<path d="M117.67 140.78C117.67 141.623 117.42 142.446 116.952 143.147C116.484 143.847 115.819 144.393 115.04 144.716C114.262 145.038 113.405 145.123 112.579 144.958C111.752 144.794 110.993 144.388 110.398 143.792C109.802 143.196 109.396 142.437 109.232 141.611C109.067 140.785 109.152 139.928 109.474 139.15C109.797 138.371 110.343 137.706 111.043 137.238C111.744 136.77 112.567 136.52 113.41 136.52C113.97 136.519 114.524 136.628 115.042 136.842C115.559 137.055 116.029 137.369 116.425 137.765C116.821 138.161 117.135 138.631 117.348 139.148C117.562 139.666 117.671 140.22 117.67 140.78Z" fill="url(#paint1_linear_105_3)"/>
<path d="M129.91 140.78C129.91 141.623 129.66 142.446 129.192 143.147C128.724 143.847 128.059 144.393 127.28 144.716C126.502 145.038 125.645 145.123 124.819 144.958C123.993 144.794 123.234 144.388 122.638 143.792C122.042 143.196 121.636 142.437 121.472 141.611C121.308 140.785 121.392 139.928 121.714 139.15C122.037 138.371 122.583 137.706 123.283 137.238C123.984 136.77 124.808 136.52 125.65 136.52C126.21 136.519 126.764 136.628 127.282 136.842C127.799 137.055 128.27 137.369 128.665 137.765C129.061 138.161 129.375 138.631 129.589 139.148C129.802 139.666 129.911 140.22 129.91 140.78Z" fill="url(#paint2_linear_105_3)"/>
<path d="M135.18 389.16L125.86 405.85C124.622 404.976 123.446 404.017 122.34 402.98C115.09 396.31 100.34 378.06 114.58 349.19C114.58 349.19 121.13 331.34 124.81 323.7C125.283 322.481 125.959 321.352 126.81 320.36C129.03 318.85 135.18 389.16 135.18 389.16Z" fill="#7AB6C4"/>
<path d="M177.455 289.714C181.78 286.705 180.453 277.32 174.492 268.751C168.53 260.183 160.191 255.677 155.866 258.686C151.541 261.695 152.868 271.081 158.83 279.649C164.791 288.217 173.13 292.723 177.455 289.714Z" stroke="#007189" stroke-width="3.29" stroke-miterlimit="10"/>
<path d="M176.49 291.32L182.23 299.26L185.25 297L179.44 289.56L176.49 291.32Z" fill="#007189"/>
<path d="M177.315 294.62L181.642 290.987L198.442 310.987L194.115 314.621L177.315 294.62Z" fill="#091240"/>
<path d="M157.55 262.31C157.55 262.31 160.16 268.31 162.36 274.7C162.94 276.35 166.19 277.4 166.66 279.01C167.58 282.19 165.14 283.19 165.02 285.01C164.61 291.19 166.87 297.92 156.47 301.7C147.25 305.05 150.97 320.1 150.97 320.1C150.97 320.1 139.16 325.32 133.97 318.73C133.97 318.73 135.9 298.95 127.66 281.92C119.42 264.89 141.75 246.1 157.55 262.31Z" fill="url(#paint3_linear_105_3)"/>
<path d="M132.51 315.89L133.51 311.01C133.51 311.01 149.86 311.91 151.51 313.45C152.632 314.585 153.561 315.895 154.26 317.33L132.51 315.89Z" fill="#25233A"/>
<path d="M164.37 424.5H129.67C124.27 424.33 122.03 423.36 122.17 418.03C122.43 408.3 122.17 341.16 124.78 326.03C126.37 316.72 133.2 314.92 134.71 314.63H134.94C134.94 314.63 145.28 315.52 149.57 315.46C154.14 315.39 159.73 322.09 159.73 322.09C159.73 322.09 163.29 335.88 166.47 347.61C168.02 353.35 169.47 358.61 170.39 361.5C172.31 367.63 174.5 395.88 175.66 412.41C175.761 413.957 175.545 415.507 175.023 416.967C174.502 418.426 173.688 419.764 172.63 420.897C171.572 422.029 170.293 422.933 168.873 423.553C167.452 424.173 165.92 424.495 164.37 424.5Z" fill="#8B9698"/>
<path opacity="0.61" d="M164.37 424.5H154.37L150.37 343.12L166.52 347.56C168.07 353.3 169.52 358.56 170.44 361.45C172.36 367.58 174.55 395.83 175.71 412.36C175.819 413.915 175.606 415.475 175.085 416.944C174.564 418.413 173.746 419.759 172.682 420.898C171.618 422.037 170.331 422.944 168.901 423.564C167.471 424.184 165.929 424.502 164.37 424.5Z" fill="url(#paint4_linear_105_3)"/>
<path d="M157.55 262.31L153.68 261.89C153.612 263.111 153.265 264.301 152.665 265.367C152.065 266.433 151.229 267.348 150.22 268.04C149.737 267.263 149.044 266.639 148.22 266.24C146.8 267.89 148.46 270.34 148.49 272.5C148.425 273.524 148.216 274.534 147.87 275.5C147.297 277.666 147.194 279.931 147.57 282.14C146.11 282.03 145.42 280.07 144 279.78C142.58 279.49 141.63 280.78 141.28 282.01C141.104 282.757 141.081 283.531 141.211 284.287C141.341 285.043 141.622 285.765 142.038 286.41C142.453 287.055 142.994 287.61 143.628 288.041C144.263 288.472 144.978 288.771 145.73 288.92C146.06 288.97 146.45 289.02 146.63 289.3C146.73 289.498 146.764 289.721 146.73 289.94C146.695 292.728 146.201 295.492 145.27 298.12C144.313 300.767 142.367 302.939 139.84 304.18C138.09 304.95 135.64 304.89 134.68 303.18C134.83 304.07 133.75 304.78 132.86 304.59C132.006 304.301 131.292 303.701 130.86 302.91C128.06 298.83 127.34 293.74 125.7 289.07C124.27 284.99 122.11 281.2 120.45 277.2C118.79 273.2 117.59 268.85 118.24 264.58C118.763 261.492 120.195 258.631 122.355 256.363C124.514 254.095 127.302 252.523 130.36 251.85C131.508 251.705 132.635 251.43 133.72 251.03C134.656 250.494 135.564 249.91 136.44 249.28C138.313 248.365 140.357 247.854 142.44 247.78C144.61 247.623 146.789 247.667 148.95 247.91C156.95 248.52 156.64 256.14 157.22 257.78C157.26 258.16 158.02 262.36 157.55 262.31Z" fill="#3F3D56"/>
<path d="M184.13 292.63C184.169 291.862 184.356 291.108 184.68 290.41C184.846 290.062 185.108 289.769 185.437 289.567C185.765 289.365 186.145 289.262 186.53 289.27C187.53 289.38 188.09 290.34 188.53 291.2C189.17 292.42 189.8 293.64 190.43 294.87C191.88 294.2 193.53 295.36 194.43 296.69C195.33 298.02 195.84 299.63 197.11 300.58C197.507 300.821 197.864 301.121 198.17 301.47C198.484 302.054 198.586 302.729 198.46 303.38L198.25 305.96C198.12 307.64 197.91 309.49 196.69 310.67C195.54 311.565 194.145 312.088 192.69 312.17C191.427 312.429 190.13 312.48 188.85 312.32C187.095 311.855 185.481 310.965 184.15 309.73C182.22 308.17 176.95 303.07 180.4 301.04C181.74 300.25 182.47 301.16 183.4 299.6C184.33 298.04 183.97 294.38 184.13 292.63Z" fill="url(#paint5_linear_105_3)"/>
<path d="M197.6 347.32C194.88 359.32 186.42 366.32 177.89 367.79C174.031 368.517 170.04 367.959 166.53 366.2C155.73 360.62 144.2 331.28 144.78 322C145.06 317.56 146.96 315.49 149.6 315.44C152.48 315.37 156.25 317.72 159.76 322.04C163.27 326.36 166.16 332.17 169.08 336.5C170.099 338.117 171.33 339.59 172.74 340.88C173.582 341.654 174.619 342.183 175.74 342.41C176.489 342.493 177.248 342.417 177.966 342.188C178.685 341.959 179.347 341.582 179.91 341.08C187.91 334.89 184.69 310.65 184.69 310.65L188.82 310.41L197.28 309.91C197.28 309.91 201.57 329.7 197.6 347.32Z" fill="#7AB6C4"/>
<path d="M261.13 223.19H258.02V222.19C258.048 221.901 258.007 221.61 257.9 221.34C257.855 221.278 257.794 221.228 257.724 221.197C257.654 221.165 257.577 221.152 257.5 221.16C257.409 221.156 257.319 221.176 257.238 221.219C257.157 221.261 257.089 221.323 257.04 221.4C256.926 221.633 256.875 221.891 256.89 222.15C256.869 222.492 256.927 222.834 257.06 223.15C257.321 223.494 257.665 223.766 258.06 223.94C259.125 224.48 260.079 225.216 260.87 226.11C261.322 226.952 261.524 227.907 261.45 228.86C261.49 229.542 261.381 230.225 261.13 230.86C260.853 231.356 260.416 231.744 259.89 231.96C259.215 232.264 258.481 232.414 257.74 232.4C256.946 232.423 256.159 232.248 255.45 231.89C254.888 231.625 254.443 231.162 254.2 230.59C253.98 229.868 253.882 229.114 253.91 228.36V227.52H256.97V229.08C256.939 229.396 256.984 229.715 257.1 230.01C257.151 230.083 257.221 230.141 257.302 230.177C257.382 230.214 257.472 230.229 257.56 230.22C257.659 230.226 257.758 230.205 257.846 230.159C257.934 230.113 258.008 230.044 258.06 229.96C258.182 229.719 258.238 229.45 258.22 229.18C258.282 228.663 258.173 228.14 257.91 227.69C257.429 227.251 256.906 226.859 256.35 226.52C255.774 226.158 255.223 225.757 254.7 225.32C254.401 225.042 254.169 224.7 254.02 224.32C253.639 223.059 253.677 221.708 254.13 220.47C254.414 219.994 254.841 219.62 255.35 219.4C255.984 219.138 256.664 219.008 257.35 219.02C258.112 218.999 258.869 219.142 259.57 219.44C260.09 219.636 260.523 220.012 260.79 220.5C261.033 221.196 261.135 221.934 261.09 222.67L261.13 223.19ZM271.06 219.3H276.64V221.87H274.41V224.31H276.5V226.76H274.41V229.59H276.86V232.17H271.06V219.3ZM292.22 219.3L294.13 232.17H290.71L290.53 229.85H289.33L289.13 232.17H285.67L287.38 219.3H292.22ZM290.44 227.57C290.273 226.11 290.103 224.31 289.93 222.17C289.59 224.63 289.377 226.43 289.29 227.57H290.44ZM303.31 219.3H305.68C306.75 219.267 307.821 219.327 308.88 219.48C309.441 219.599 309.933 219.933 310.25 220.41C310.657 221.141 310.841 221.975 310.78 222.81C310.839 223.498 310.711 224.189 310.41 224.81C310.226 225.009 310.003 225.168 309.756 225.278C309.508 225.388 309.241 225.446 308.97 225.45C309.475 225.525 309.943 225.756 310.31 226.11C310.506 226.33 310.653 226.589 310.74 226.87C310.813 227.501 310.84 228.136 310.82 228.77V232.17H307.67V227.89C307.713 227.457 307.658 227.019 307.51 226.61C307.4 226.45 307.11 226.36 306.65 226.36V232.17H303.31V219.3ZM306.65 221.5V224.36C306.922 224.383 307.195 224.331 307.44 224.21C307.6 224.1 307.67 223.77 307.67 223.21V222.45C307.689 222.309 307.679 222.165 307.642 222.028C307.604 221.89 307.539 221.762 307.45 221.65C307.209 221.509 306.926 221.456 306.65 221.5ZM328.5 224.9H325.15V222.66C325.175 222.253 325.138 221.845 325.04 221.45C324.996 221.367 324.927 221.299 324.843 221.256C324.759 221.213 324.664 221.197 324.57 221.21C324.462 221.194 324.352 221.214 324.256 221.266C324.161 221.318 324.085 221.4 324.04 221.5C323.946 221.916 323.909 222.344 323.93 222.77V228.77C323.909 229.18 323.946 229.591 324.04 229.99C324.082 230.085 324.153 230.164 324.243 230.217C324.333 230.269 324.437 230.291 324.54 230.28C324.642 230.292 324.746 230.27 324.834 230.218C324.923 230.165 324.991 230.085 325.03 229.99C325.138 229.549 325.178 229.093 325.15 228.64V227.03H328.5V227.53C328.543 228.482 328.445 229.436 328.21 230.36C327.979 230.978 327.541 231.498 326.97 231.83C326.252 232.269 325.421 232.488 324.58 232.46C323.74 232.492 322.907 232.306 322.16 231.92C321.864 231.77 321.6 231.563 321.383 231.311C321.167 231.059 321.003 230.766 320.9 230.45C320.656 229.527 320.552 228.574 320.59 227.62V223.86C320.579 223.162 320.609 222.464 320.68 221.77C320.757 221.283 320.953 220.823 321.25 220.43C321.589 219.985 322.042 219.64 322.56 219.43C323.17 219.171 323.828 219.045 324.49 219.06C325.34 219.028 326.183 219.225 326.93 219.63C327.505 219.939 327.952 220.442 328.19 221.05C328.432 221.915 328.536 222.813 328.5 223.71V224.9ZM345.97 219.3V232.17H342.62V226.76H341.62V232.17H338.27V219.3H341.62V223.9H342.62V219.3H345.97Z" fill="#4A4A4A"/>
<path opacity="0.24" d="M128.44 422.92C128.9 423.399 129.321 423.914 129.7 424.46C124.3 424.3 122.06 423.33 122.2 418C122.46 408.27 122.2 341.13 124.81 326C126.4 316.69 133.23 314.89 134.74 314.6H134.97C131.499 318.892 129.243 324.038 128.44 329.5C127.28 338.28 125.66 420.04 128.44 422.92ZM177.89 367.79C174.031 368.517 170.041 367.959 166.53 366.2C155.73 360.62 144.2 331.28 144.78 322C145.06 317.56 146.96 315.49 149.6 315.44C149.6 316.44 145.27 327.28 158.31 350.32C167.11 365.88 175.58 366.53 177.89 367.79Z" fill="white"/>
<path d="M172.74 340.88C171.124 339.803 169.853 338.282 169.08 336.5C170.099 338.117 171.33 339.59 172.74 340.88Z" fill="white"/>
<path opacity="0.24" d="M175.75 342.45C176.5 342.533 177.258 342.457 177.977 342.228C178.695 341.999 179.357 341.622 179.92 341.12C187.92 334.93 184.7 310.69 184.7 310.69L188.83 310.45C188.83 310.45 192.89 348.79 175.75 342.45ZM112.69 373.45C110.61 386.65 122.38 398.53 122.38 398.53V402.95C115.13 396.28 100.38 378.03 114.62 349.16C114.62 349.16 121.17 331.31 124.85 323.67V325.98C124.85 325.98 114.78 360.28 112.69 373.45ZM182.18 584.05C182.22 585.096 182.368 586.135 182.62 587.15L180.97 584.05L180.89 583.9L175.75 510.32C175.75 510.32 151.69 481.04 137.69 459.61C123.69 438.18 126.09 424.09 126.09 424.09H128.88C129.171 424.195 129.455 424.318 129.73 424.46C129.73 424.46 132.5 449.73 175.94 504.06C175.94 504.06 184.5 511.94 182.53 541.81C180.75 568.32 181.8 579.45 182.18 584.05Z" fill="white"/>
<path opacity="0.24" d="M137.78 516.81L114.62 584.05H111.18L133.41 514.05C133.41 514.05 134.36 480.59 128.58 462.46C124.74 450.37 124.97 436.36 125.58 428.36L129.72 444.36C130.483 453.164 132.244 461.854 134.97 470.26C139.32 483 137.78 516.81 137.78 516.81Z" fill="white"/>
</g>
<defs>
<linearGradient id="paint0_linear_105_3" x1="100.86" y1="127.04" x2="103.64" y2="251.46" gradientUnits="userSpaceOnUse">
<stop stop-color="#F4FBFD"/>
<stop offset="0.01" stop-color="#67DDF9"/>
<stop offset="0.12" stop-color="#5CB3CE"/>
<stop offset="0.24" stop-color="#538EA9"/>
<stop offset="0.37" stop-color="#4C718B"/>
<stop offset="0.5" stop-color="#465A73"/>
<stop offset="0.63" stop-color="#424A63"/>
<stop offset="0.79" stop-color="#404059"/>
<stop offset="0.99" stop-color="#3F3D56"/>
</linearGradient>
<linearGradient id="paint1_linear_105_3" x1="113.09" y1="126.77" x2="115.87" y2="251.19" gradientUnits="userSpaceOnUse">
<stop stop-color="#68E1FD"/>
<stop offset="0.01" stop-color="#67DDF9"/>
<stop offset="0.12" stop-color="#5CB3CE"/>
<stop offset="0.24" stop-color="#538EA9"/>
<stop offset="0.37" stop-color="#4C718B"/>
<stop offset="0.5" stop-color="#465A73"/>
<stop offset="0.63" stop-color="#424A63"/>
<stop offset="0.79" stop-color="#404059"/>
<stop offset="0.99" stop-color="#3F3D56"/>
</linearGradient>
<linearGradient id="paint2_linear_105_3" x1="125.33" y1="126.5" x2="128.11" y2="250.92" gradientUnits="userSpaceOnUse">
<stop stop-color="#68E1FD"/>
<stop offset="0.01" stop-color="#67DDF9"/>
<stop offset="0.12" stop-color="#5CB3CE"/>
<stop offset="0.24" stop-color="#538EA9"/>
<stop offset="0.37" stop-color="#4C718B"/>
<stop offset="0.5" stop-color="#465A73"/>
<stop offset="0.63" stop-color="#424A63"/>
<stop offset="0.79" stop-color="#404059"/>
<stop offset="0.99" stop-color="#3F3D56"/>
</linearGradient>
<linearGradient id="paint3_linear_105_3" x1="125.86" y1="289.07" x2="166.87" y2="289.07" gradientUnits="userSpaceOnUse">
<stop stop-color="#ECC4D7"/>
<stop offset="0.42" stop-color="#EFD4D1"/>
<stop offset="1" stop-color="#F2EAC9"/>
</linearGradient>
<linearGradient id="paint4_linear_105_3" x1="206.78" y1="404.81" x2="110.77" y2="365.91" gradientUnits="userSpaceOnUse">
<stop offset="0.17" stop-color="#00272E"/>
<stop offset="1" stop-color="#69B9EB" stop-opacity="0"/>
</linearGradient>
<linearGradient id="paint5_linear_105_3" x1="165.709" y1="317.411" x2="184.698" y2="314.708" gradientUnits="userSpaceOnUse">
<stop stop-color="#ECC4D7"/>
<stop offset="0.42" stop-color="#EFD4D1"/>
<stop offset="1" stop-color="#F2EAC9"/>
</linearGradient>
<clipPath id="clip0_105_3">
<rect width="597.02" height="595.91" fill="white"/>
</clipPath>
</defs>
</svg>
